{"asset":{"version":"2.0","generator":"VECTARY"},"nodes":[{"translation":[0.08477616553365337,0.03064720440924085,-0.015256702716537028],"scale":[0.0010980313371395337,0.0010980313371395337,0.0010980313371395341],"rotation":[4.329780281177466e-17,0.7071067811865475,0.7071067811865476,4.329780281177465e-17],"name":"3D Text - n","mesh":0},{"translation":[0.05167438098531606,0.03064720440924085,-0.015256702716537028],"scale":[0.0010980313371395337,0.0010980313371395337,0.0010980313371395341],"rotation":[4.329780281177466e-17,0.7071067811865475,0.7071067811865476,4.329780281177465e-17],"name":"3D Text - u","mesh":1},{"translation":[0.01857259643697874,0.030647204409240864,-0.015256702716537032],"scale":[0.0010980313371395337,0.0010980313371395337,0.0010980313371395341],"rotation":[4.329780281177466e-17,0.7071067811865475,0.7071067811865476,4.329780281177465e-17],"name":"3D Text - n","mesh":2},{"translation":[-0.014529188111358561,0.030647204409240868,-0.015256702716537028],"scale":[0.0010980313371395337,0.0010980313371395337,0.0010980313371395341],"rotation":[4.329780281177466e-17,0.7071067811865475,0.7071067811865476,4.329780281177465e-17],"name":"3D Text - g","mesh":3},{"translation":[-0.044470379528622844,0.030647204409240868,-0.015256702716537028],"scale":[0.0010980313371395337,0.0010980313371395337,0.0010980313371395341],"rotation":[4.329780281177466e-17,0.7071067811865475,0.7071067811865476,4.329780281177465e-17],"name":"3D Text - l","mesh":4},{"translation":[-0.06044223183984683,0.030647204409240868,-0.015256702716537028],"scale":[0.0010980313371395337,0.0010980313371395337,0.0010980313371395341],"rotation":[4.329780281177466e-17,0.7071067811865475,0.7071067811865476,4.329780281177465e-17],"name":"3D Text - e","mesh":5},{"translation":[-0.09098658988517849,0.03064720440924087,-0.015256702716537028],"scale":[0.0010980313371395337,0.0010980313371395337,0.0010980313371395341],"rotation":[4.329780281177466e-17,0.7071067811865475,0.7071067811865476,4.329780281177465e-17],"name":"3D Text - n","mesh":6},{"translation":[0.026833590858206365,0.022340453724092903,-0.011894854519273993],"scale":[0.001,0.001,0.001],"rotation":[0,0.7071067811865476,-0.7071067811865475,0],"name":"Cone","mesh":7},{"translation":[-0.022767539188735125,0.010922971266134791,-0.012093819085988968],"scale":[0.001,0.001,0.001],"rotation":[-0.7071067811865475,0,0,0.7071067811865476],"name":"Box","mesh":8},{"translation":[0.014498163632767624,0.05117477392539506,-0.28079085070696247],"scale":[1,1,1],"rotation":[0.00025845664544599245,-0.9977587143205912,-0.003860292897228834,-0.06680253989356222],"name":"Camera","camera":0}],"materials":[{"pbrMetallicRoughness":{"baseColorFactor":[1,1,1,1],"metallicFactor":0,"roughnessFactor":0.2},"name":"Lincoln","emissiveFactor":[0.9607843137254902,0.9764705882352941,1],"extensions":{},"alphaMode":"OPAQUE","doubleSided":false},{"pbrMetallicRoughness":{"baseColorFactor":[0,0,0,1],"metallicFactor":0,"roughnessFactor":1},"name":"Flat Material","emissiveFactor":[0.9882352941176471,0.6901960784313725,0.13725490196078433],"extensions":{},"alphaMode":"OPAQUE","doubleSided":false}],"meshes":[{"primitives":[{"mode":4,"attributes":{"POSITION":1,"NORMAL":2,"TEXCOORD_0":3},"material":0,"indices":0}]},{"primitives":[{"mode":4,"attributes":{"POSITION":5,"NORMAL":6,"TEXCOORD_0":7},"material":0,"indices":4}]},{"primitives":[{"mode":4,"attributes":{"POSITION":1,"NORMAL":2,"TEXCOORD_0":3},"material":0,"indices":0}]},{"primitives":[{"mode":4,"attributes":{"POSITION":9,"NORMAL":10,"TEXCOORD_0":11},"material":0,"indices":8}]},{"primitives":[{"mode":4,"attributes":{"POSITION":13,"NORMAL":14,"TEXCOORD_0":15},"material":0,"indices":12}]},{"primitives":[{"mode":4,"attributes":{"POSITION":17,"NORMAL":18,"TEXCOORD_0":19},"material":0,"indices":16}]},{"primitives":[{"mode":4,"attributes":{"POSITION":1,"NORMAL":2,"TEXCOORD_0":3},"material":0,"indices":0}]},{"primitives":[{"mode":4,"attributes":{"POSITION":21,"NORMAL":22,"TEXCOORD_0":23},"material":1,"indices":20}]},{"primitives":[{"mode":4,"attributes":{"POSITION":25,"NORMAL":26,"TEXCOORD_0":27},"material":1,"indices":24}]}],"accessors":[{"bufferView":0,"byteOffset":0,"componentType":5125,"count":636,"type":"SCALAR"},{"bufferView":1,"byteOffset":0,"componentType":5126,"count":426,"max":[30.2978515625,1.7236544494220879e-15,28.1494140625],"min":[3.2958984375,-15,0],"type":"VEC3"},{"bufferView":2,"byteOffset":0,"componentType":5126,"count":426,"type":"VEC3"},{"bufferView":3,"byteOffset":0,"componentType":5126,"count":426,"type":"VEC2"},{"bufferView":4,"byteOffset":0,"componentType":5125,"count":756,"type":"SCALAR"},{"bufferView":5,"byteOffset":0,"componentType":5126,"count":508,"max":[30.2001953125,1.6937558804499056e-15,27.6611328125],"min":[3.2470703125,-15,-0.48828125],"type":"VEC3"},{"bufferView":6,"byteOffset":0,"componentType":5126,"count":508,"type":"VEC3"},{"bufferView":7,"byteOffset":0,"componentType":5126,"count":508,"type":"VEC2"},{"bufferView":8,"byteOffset":0,"componentType":5125,"count":3012,"type":"SCALAR"},{"bufferView":9,"byteOffset":0,"componentType":5126,"count":2006,"max":[29.39453125,1.7236544494220879e-15,28.1494140625],"min":[0.48828125,-15,-12.01171875],"type":"VEC3"},{"bufferView":10,"byteOffset":0,"componentType":5126,"count":2006,"type":"VEC3"},{"bufferView":11,"byteOffset":0,"componentType":5126,"count":2006,"type":"VEC2"},{"bufferView":12,"byteOffset":0,"componentType":5125,"count":36,"type":"SCALAR"},{"bufferView":13,"byteOffset":0,"componentType":5126,"count":24,"max":[12.841796875,2.326111291837919e-15,37.98828125],"min":[3.2958984375,-15,0],"type":"VEC3"},{"bufferView":14,"byteOffset":0,"componentType":5126,"count":24,"type":"VEC3"},{"bufferView":15,"byteOffset":0,"componentType":5126,"count":24,"type":"VEC2"},{"bufferView":16,"byteOffset":0,"componentType":5125,"count":1248,"type":"SCALAR"},{"bufferView":17,"byteOffset":0,"componentType":5126,"count":834,"max":[28.80859375,1.7236544494220879e-15,28.1494140625],"min":[2.099609375,-15,-0.48828125],"type":"VEC3"},{"bufferView":18,"byteOffset":0,"componentType":5126,"count":834,"type":"VEC3"},{"bufferView":19,"byteOffset":0,"componentType":5126,"count":834,"type":"VEC2"},{"bufferView":20,"byteOffset":0,"componentType":5125,"count":4992,"type":"SCALAR"},{"bufferView":21,"byteOffset":0,"componentType":5126,"count":897,"max":[16.510093688964844,16.510093688964844,45.765323638916016],"min":[-16.510093688964844,-16.510093688964844,0],"type":"VEC3"},{"bufferView":22,"byteOffset":0,"componentType":5126,"count":897,"type":"VEC3"},{"bufferView":23,"byteOffset":0,"componentType":5126,"count":897,"type":"VEC2"},{"bufferView":24,"byteOffset":0,"componentType":5125,"count":6084,"type":"SCALAR"},{"bufferView":25,"byteOffset":0,"componentType":5126,"count":1172,"max":[114,19.5,83],"min":[-114,-19.5,0],"type":"VEC3"},{"bufferView":26,"byteOffset":0,"componentType":5126,"count":1172,"type":"VEC3"},{"bufferView":27,"byteOffset":0,"componentType":5126,"count":1172,"type":"VEC2"}],"bufferViews":[{"buffer":0,"byteOffset":0,"byteLength":2544,"target":34963},{"buffer":0,"byteOffset":2544,"byteLength":5112,"target":34962},{"buffer":0,"byteOffset":7656,"byteLength":5112,"target":34962},{"buffer":0,"byteOffset":12768,"byteLength":3408,"target":34962},{"buffer":0,"byteOffset":16176,"byteLength":3024,"target":34963},{"buffer":0,"byteOffset":19200,"byteLength":6096,"target":34962},{"buffer":0,"byteOffset":25296,"byteLength":6096,"target":34962},{"buffer":0,"byteOffset":31392,"byteLength":4064,"target":34962},{"buffer":0,"byteOffset":35456,"byteLength":12048,"target":34963},{"buffer":0,"byteOffset":47504,"byteLength":24072,"target":34962},{"buffer":0,"byteOffset":71576,"byteLength":24072,"target":34962},{"buffer":0,"byteOffset":95648,"byteLength":16048,"target":34962},{"buffer":0,"byteOffset":111696,"byteLength":144,"target":34963},{"buffer":0,"byteOffset":111840,"byteLength":288,"target":34962},{"buffer":0,"byteOffset":112128,"byteLength":288,"target":34962},{"buffer":0,"byteOffset":112416,"byteLength":192,"target":34962},{"buffer":0,"byteOffset":112608,"byteLength":4992,"target":34963},{"buffer":0,"byteOffset":117600,"byteLength":10008,"target":34962},{"buffer":0,"byteOffset":127608,"byteLength":10008,"target":34962},{"buffer":0,"byteOffset":137616,"byteLength":6672,"target":34962},{"buffer":0,"byteOffset":144288,"byteLength":19968,"target":34963},{"buffer":0,"byteOffset":164256,"byteLength":10764,"target":34962},{"buffer":0,"byteOffset":175020,"byteLength":10764,"target":34962},{"buffer":0,"byteOffset":185784,"byteLength":7176,"target":34962},{"buffer":0,"byteOffset":192960,"byteLength":24336,"target":34963},{"buffer":0,"byteOffset":217296,"byteLength":14064,"target":34962},{"buffer":0,"byteOffset":231360,"byteLength":14064,"target":34962},{"buffer":0,"byteOffset":245424,"byteLength":9376,"target":34962}],"cameras":[{"name":"Camera","type":"perspective","extras":{"targetDistance":0.28992748306485017},"perspective":{"aspectRatio":1.6024691358024692,"yfov":0.6108652381980153,"zfar":30.980342390703374,"znear":0.01086686913610816}}],"scene":0,"scenes":[{"nodes":[0,1,2,3,4,5,6,7,8,9],"name":"Project Name"}],"extensionsUsed":["KHR_texture_transform"],"buffers":[{"byteLength":254800,"uri":"data:application/octet-stream;base64,"}]}